{"title":"Irumbu Kuthirai (2014) Tamil DVDRip 1CDRip 700MB [SReeJoN]","uid":11666623,"size":731008138,"categoryP":"video","categoryS":"movies","magnet":"?xt=urn:btih:48dab8d38a96176c11a61191a692fce3bda4795d&amp;dn=Irumbu+Kuthirai+%282014%29+Tamil+DVDRip+1CDRip+700MB+%5BSReeJoN%5D&amp;tr=udp%3A%2F%2Ftracker.openbittorrent.com%3A80&amp;tr=udp%3A%2F%2Fopen.demonii.com%3A1337&amp;tr=udp%3A%2F%2Ftracker.coppersurfer.tk%3A6969&amp;tr=udp%3A%2F%2Fexodus.desync.com%3A6969","seeders":1,"leechers":0,"uploader":"siretgr","files":-1,"time":1418066524,"description":" &lt;a href=&quot;http://www.imdb.com/title/tt3681488/&quot; rel=&quot;nofollow&quot; target=&quot;_NEW&quot;&gt;http://www.imdb.com/title/tt3681488/&lt;/a&gt;\n &lt;a href=&quot;\nhttp://en.wikipedia.org/wiki/Irumbu_Kuthirai&quot; rel=&quot;nofollow&quot; target=&quot;_NEW&quot;&gt;\nhttp://en.wikipedia.org/wiki/Irumbu_Kuthirai&lt;/a&gt;\n\nPlot\n\nMichael Prithviraj Narayanan (Atharvaa) is a Pizza Delivery Boy, his mother is Mary (Devadarshini) and his bestfriends are Jagan (Jagan) and Christina (Raai Laxmi). Michael receives complaints from his boss (Manobala) for slow  pizza delivery, he follows every rule on riding the bike after a bike accident where he witnessed his father's death. Prithviraj falls in love with Samyuktha Aka Sam (Priya Anand), they become friends and she asks him to buy a bike,  and he agree's and they go on rides. one day Prithviraj and Sam get into an argument when he attempts to kiss her and she tells him that she only likes him as a friend. on there way home, Samyuktha is kidnapped by mysterious  bikers. Michael, Jagan and Christina look for clues to find the kidnappers. The Kidnapper is revealed to be Don Stoney (Johnny Tri Nguyen). Don Stoney is a biker who is fired after he beats a guy who scratches his bike. Stoney is  obsessed with his bike, Stoney's brother rides the bike competing Michael, Michael wins the bike, and Stoney's brother commit's suicide, Stoney attacked Michael's bike killing his father. Michael comes to Sam's rescue and Stoney's friend (Joe Mallori)organizes a bike race, and who wins get the bike. Michael wins the race, wins the bike and rescues Sam.\nCast\n\n    Atharvaa as Michael Prithviraj Narayanan\n    Priya Anand as Samyuktha Ramakrishnan\n    Raai Laxmi as Christina\n    Johnny Tri Nguyen as Don Stoney\n    Jagan as Jagan\n    Manobala as Prithviraj's boss\n    Mayilsamy as Jeevan Ramesh\n    Devadarshini as Mary Narayanan\n    Anupama Kumar as Samyuktha's aunt\n    Neelu as Prithviraj's neighbour\n    Joshna as Christina's sister\n    Raj Kishor as Don's assistant\n    Swaminathan as traffic police\n    Sachu as Prithviraj's grandmother\n    Joe Malloori as Rooban\n    Sanjay Iyer as Bhai\n    Akshara Gowda in a special appearance\n    Alisha Abdullah as Don's assistant (guest appearance)\n\nMedia Info\n\nGeneral\nComplete name                    : E:Irumbu Kuthirai (2014) Tamil DVDRip 1CDRip 700MB [SReeJoN]Irumbu Kuthirai (2014) Tamil DVDRip 1CDRip 700MB [SReeJoN].avi\nFormat                           : AVI\nFormat/Info                      : Audio Video Interleave\nFile size                        : 697 MiB\nDuration                         : 1h 58mn\nOverall bit rate                 : 821 Kbps\n\nVideo\nID                               : 0\nFormat                           : MPEG-4 Visual\nFormat profile                   : Advanced Simple@L5\nFormat settings, BVOP            : 2\nFormat settings, QPel            : No\nFormat settings, GMC             : No warppoints\nFormat settings, Matrix          : Default (H.263)\nCodec ID                         : XVID\nCodec ID/Hint                    : XviD\nDuration                         : 1h 58mn\nBit rate                         : 701 Kbps\nWidth                            : 608 pixels\nHeight                           : 272 pixels\nDisplay aspect ratio             : 2.25:1\nFrame rate                       : 29.970 fps\nColor space                      : YUV\nChroma subsampling               : 4:2:0\nBit depth                        : 8 bits\nScan type                        : Progressive\nCompression mode                 : Lossy\nBits/(Pixel*Frame)               : 0.142\nStream size                      : 596 MiB (85%)\nWriting library                  : XviD 1.2.1 (UTC 2008-12-04)\n\nAudio\nID                               : 1\nFormat                           : MPEG Audio\nFormat version                   : Version 1\nFormat profile                   : Layer 3\nMode                             : Joint stereo\nMode extension                   : MS Stereo\nCodec ID                         : 55\nCodec ID/Hint                    : MP3\nDuration                         : 1h 58mn\nBit rate mode                    : Constant\nBit rate                         : 112 Kbps\nChannel(s)                       : 2 channels\nSampling rate                    : 48.0 KHz\nCompression mode                 : Lossy\nStream size                      : 95.1 MiB (14%)\nAlignment                        : Split accross interleaves\nInterleave, duration             : 133 ms (4.00 video frames)\nInterleave, preload duration     : 200 ms\nTitle                            : irum aud\nWriting library                  : LAME3.97","torrent":{"xt":"urn:btih:48dab8d38a96176c11a61191a692fce3bda4795d","amp;dn":"Irumbu+Kuthirai+%282014%29+Tamil+DVDRip+1CDRip+700MB+%5BSReeJoN%5D","amp;tr":["udp%3A%2F%2Ftracker.openbittorrent.com%3A80","udp%3A%2F%2Fopen.demonii.com%3A1337","udp%3A%2F%2Ftracker.coppersurfer.tk%3A6969","udp%3A%2F%2Fexodus.desync.com%3A6969"],"infoHash":"48dab8d38a96176c11a61191a692fce3bda4795d","infoHashBuffer":{"type":"Buffer","data":[72,218,184,211,138,150,23,108,17,166,17,145,166,146,252,227,189,164,121,93]},"announce":[],"urlList":[]}}